# xmcd CD database file
#
# Track frame offsets:
#	150
#	16552
#	33245
#	52785
#	71533
#	89139
#	102953
#	122902
#	146529
#	162278
#	184549
#
# Disc length: 2805 seconds
#
# Revision: 4
# Processed by: cddbd v1.5.2PL0 Copyright (c) Steve Scherf et al.
# Submitted via: CDex 1.79
#
DISCID=870af30b
DTITLE=Peter Green Splinter Group - Blues Don't Change
DYEAR=2001
DGENRE=Blues
TTITLE0=I Believe My Time Ain't Long
TTITLE1=Take Out Some Insurance
TTITLE2=When It All Comes Down
TTITLE3=Honey Bee
TTITLE4=Little Red Rooster
TTITLE5=Don't Start Me Talking
TTITLE6=Nobody Knows You When You're Down And Out
TTITLE7=Help Me Through The Day
TTITLE8=Honest I Do
TTITLE9=Blues Don't Change
TTITLE10=Crawlin' King Snake
EXTD=YEAR: 2001
EXTT0=
EXTT1=
EXTT2=
EXTT3=
EXTT4=
EXTT5=
EXTT6=
EXTT7=
EXTT8=
EXTT9=
EXTT10=
PLAYORDER=
